<svg viewBox="0 0 137 102" fill="none">
    <defs>
        <symbol id="mountain" viewBox="10.71500015258789 10.5469970703125 78.94599914550781 78.95700073242188">
            <path d="M50.186,89.504c-21.756,0-39.471-17.716-39.471-39.457c0-21.784,17.715-39.5,39.471-39.5c21.77,0,39.475,17.715,39.475,39.5  C89.66,71.788,71.955,89.504,50.186,89.504 M50.186,17.43c-17.974,0-32.589,14.629-32.589,32.617  c0,17.977,14.615,32.574,32.589,32.574c17.977,0,32.603-14.597,32.603-32.574C82.788,32.059,68.162,17.43,50.186,17.43" />
            <path d="M72.676,40.655c-1.517-1.054-3.578-0.649-4.6,0.878l-5.814,8.485l-4.039-5.857l-0.201-0.33l-2.538-3.667l-1.269-1.875  l-1.27,1.875l-0.939,1.37h-0.018l-5.814,8.485l-4.008-5.857l-4.029-5.872l-1.269,1.875l-2.552,3.725l-0.184,0.272l-7.33,10.661  c-1.012,1.502-0.606,3.562,0.91,4.603c1.502,1.021,3.56,0.62,4.6-0.907l5.814-8.47l4.025,5.861l0.211,0.315l2.527,3.663l1.27,1.871  l1.269-1.842l0.936-1.398h0.021l5.814-8.47l4.022,5.861l4.025,5.85l1.269-1.842l2.553-3.75l0.187-0.258l7.316-10.654  C74.583,43.728,74.188,41.663,72.676,40.655z" />
        </symbol>
    </defs>
    <g transform="translate(33,0)">
        <use href="#mountain" width="70" height="70" fill="none" />
    </g>
    <g fill-rule="evenodd" transform="translate(0,33)">
        <path d="M42 45.5L39.9 48.6C38.6 50.5 37.4 52.4 36.9 53.1A3 3 0 0 1 36.7 53.4L36.7 53.4A29.2 29.2 0 0 1 36.7 52.3C36.6 51.7 36.6 50.8 36.6 50A157.3 157.3 0 0 0 36.5 47.4L36.2 41.6 33.2 39.6 24.2 53 27.4 55.1 29.4 52.2C31 49.8 32.2 48 32.6 47.4A2.4 2.4 0 0 1 32.7 47.2L32.8 47.2A38.9 38.9 0 0 1 32.8 48.5C32.8 49.8 32.9 51.9 32.9 53.4L33.2 59 36.2 61 45.2 47.7 42 45.5ZM73.1 52.6L73.3 58.8 67.3 59 67.1 52.7 63.2 52.8 63.6 68.9 67.5 68.8 67.3 62.6 73.4 62.4 73.5 68.7 77.4 68.6 77 52.5 73.1 52.6ZM87.2 62.5L86.3 59.8 92.2 57.9 91.1 54.7 85.3 56.6 84.4 54.1 91.9 51.6 90.7 48.2 79.6 51.9 84.7 67.2 95.9 63.5 94.8 60 87.2 62.5ZM104.1 39.7L93 47.2 95.1 50.2 99.9 46.9A35.8 35.8 0 0 0 100.6 46.4C100.8 46.2 101 46.1 101.3 45.9A124 124 0 0 0 102 45.4L102 45.4C102 45.4 101.8 46.3 101.6 47A8.1 8.1 0 0 0 101.5 47.4L99.9 57.7 101.9 60.6 113.1 53 111.1 50 106.3 53.3C105.2 54 104.3 54.7 104.3 54.7L104.2 54.7A226.6 226.6 0 0 1 104.6 52.9 35.8 35.8 0 0 0 104.6 52.6L106.1 42.7 104.1 39.7ZM9.4 22.4L7.1 19.4A6.9 6.9 0 0 0 5.3 27.6C6.8 31 9.7 32.5 12.4 31.3A5.7 5.7 0 0 0 15.1 25.2 21.7 21.7 0 0 0 15 24.9 160.7 160.7 0 0 1 14.9 23 2.1 2.1 0 0 1 15.6 20.7 1.5 1.5 0 0 1 17.5 21.9 3 3 0 0 1 17.6 22.2 2.8 2.8 0 0 1 16.6 25.3L19 28.3C21.1 26.6 21.8 23.6 20.6 20.8A5.5 5.5 0 0 0 13.8 17.2 4.7 4.7 0 0 0 11.2 22.1 20.6 20.6 0 0 0 11.2 22.8 228.5 228.5 0 0 0 11.4 25.2 2.2 2.2 0 0 1 10.6 27.6 1.7 1.7 0 0 1 8.5 26.3 3.5 3.5 0 0 1 9.4 22.4ZM58.7 64.1L55.2 62A4.4 4.4 0 0 1 51.1 62.8C48.7 62.1 47.5 60 48.2 57.3 49 54.8 51.1 53.4 53.6 54.1A4.4 4.4 0 0 1 54.2 54.3 4.4 4.4 0 0 1 56.5 56.5L60.5 56.6A8.3 8.3 0 0 0 54.7 50.5 8.2 8.2 0 0 0 44.4 56.2 8.2 8.2 0 0 0 50.1 66.6C53.3 67.5 56.6 66.5 58.7 64.1ZM120.2 13.5L123.7 13.9 124.4 9.2 136.8 10.8 137.3 6.9 124.9 5.3 125.5 0.5 121.9 0 120.2 13.5ZM133.7 30.7L135.3 27.1 132.6 26C133.4 22.2 131.6 18.4 127.8 16.7A8.2 8.2 0 0 0 116.7 21 8.2 8.2 0 0 0 121 32 8.2 8.2 0 0 0 131 29.5L133.7 30.7ZM17.6 46.2L20.2 49.5 28.7 34.4 26.4 31.5 9.8 36.6 12.4 39.8 15 39 19 43.9 17.6 46.2ZM16.8 9.9L7.8 11.1A3.3 3.3 0 0 1 3.7 8.3 3.1 3.1 0 0 1 4.8 5.3L3.3 1.6A7.1 7.1 0 0 0 0.1 8.8 6.8 6.8 0 0 0 8.5 15L17.3 13.8 16.8 9.9ZM122.7 28.4A4.2 4.2 0 0 0 128.6 26.2C129.6 23.8 128.6 21.5 126.1 20.4 123.7 19.3 121.3 20.2 120.2 22.6 119.2 24.9 120.2 27.3 122.7 28.4ZM110.5 42.1L112.9 44.1 119.6 36.2 117.2 34.1 110.5 42.1ZM18.4 37.8L21.6 36.7C21.8 36.7 22.1 36.6 22.4 36.5A74.6 74.6 0 0 1 23.9 35.9L23.9 35.9A74.6 74.6 0 0 1 23 37.2C22.9 37.4 22.9 37.5 22.8 37.6A17.1 17.1 0 0 0 22.5 38L20.8 40.8 18.4 37.8Z" />
    </g>
    <style>
        path { fill: #000; }
        @media (prefers-color-scheme: dark) {
            path { fill: #FFF; }
        }
    </style>
</svg>